<mxfile host="app.diagrams.net" modified="2023-04-03T13:06:54.694Z" agent="Mozilla/5.0 (Windows NT 10.0; Win64; x64) AppleWebKit/537.36 (KHTML, like Gecko) Chrome/111.0.0.0 Safari/537.36 Edg/111.0.1661.62" etag="77LJNVQ4A4o8WGGvaI2W" version="21.1.4" type="device">
  <diagram name="Pagina-1" id="ciFzoh9Erdf5dS6llwOe">
    <mxGraphModel dx="1377" dy="764" grid="1" gridSize="10" guides="1" tooltips="1" connect="1" arrows="1" fold="1" page="1" pageScale="1" pageWidth="827" pageHeight="1169" math="0" shadow="0">
      <root>
        <mxCell id="0" />
        <mxCell id="1" parent="0" />
        <mxCell id="hWe4oTkrxi1AVkJzb1ZG-7" style="edgeStyle=orthogonalEdgeStyle;rounded=0;orthogonalLoop=1;jettySize=auto;html=1;exitX=0.5;exitY=1;exitDx=0;exitDy=0;entryX=0.5;entryY=0;entryDx=0;entryDy=0;" edge="1" parent="1" source="hWe4oTkrxi1AVkJzb1ZG-1" target="hWe4oTkrxi1AVkJzb1ZG-2">
          <mxGeometry relative="1" as="geometry" />
        </mxCell>
        <mxCell id="hWe4oTkrxi1AVkJzb1ZG-8" style="edgeStyle=orthogonalEdgeStyle;rounded=0;orthogonalLoop=1;jettySize=auto;html=1;exitX=0.5;exitY=1;exitDx=0;exitDy=0;entryX=0.5;entryY=0;entryDx=0;entryDy=0;" edge="1" parent="1" source="hWe4oTkrxi1AVkJzb1ZG-1" target="hWe4oTkrxi1AVkJzb1ZG-3">
          <mxGeometry relative="1" as="geometry" />
        </mxCell>
        <mxCell id="hWe4oTkrxi1AVkJzb1ZG-1" value="App" style="rounded=1;whiteSpace=wrap;html=1;" vertex="1" parent="1">
          <mxGeometry x="360" y="20" width="120" height="60" as="geometry" />
        </mxCell>
        <mxCell id="hWe4oTkrxi1AVkJzb1ZG-9" style="edgeStyle=orthogonalEdgeStyle;rounded=0;orthogonalLoop=1;jettySize=auto;html=1;exitX=0.5;exitY=1;exitDx=0;exitDy=0;" edge="1" parent="1" source="hWe4oTkrxi1AVkJzb1ZG-2" target="hWe4oTkrxi1AVkJzb1ZG-5">
          <mxGeometry relative="1" as="geometry" />
        </mxCell>
        <mxCell id="hWe4oTkrxi1AVkJzb1ZG-2" value=":feature:home" style="rounded=1;whiteSpace=wrap;html=1;" vertex="1" parent="1">
          <mxGeometry x="240" y="120" width="120" height="60" as="geometry" />
        </mxCell>
        <mxCell id="hWe4oTkrxi1AVkJzb1ZG-10" style="edgeStyle=orthogonalEdgeStyle;rounded=0;orthogonalLoop=1;jettySize=auto;html=1;exitX=0.5;exitY=1;exitDx=0;exitDy=0;" edge="1" parent="1" source="hWe4oTkrxi1AVkJzb1ZG-3">
          <mxGeometry relative="1" as="geometry">
            <mxPoint x="420" y="240" as="targetPoint" />
          </mxGeometry>
        </mxCell>
        <mxCell id="hWe4oTkrxi1AVkJzb1ZG-3" value=":feature:search" style="rounded=1;whiteSpace=wrap;html=1;" vertex="1" parent="1">
          <mxGeometry x="480" y="120" width="120" height="60" as="geometry" />
        </mxCell>
        <mxCell id="hWe4oTkrxi1AVkJzb1ZG-11" style="edgeStyle=orthogonalEdgeStyle;rounded=0;orthogonalLoop=1;jettySize=auto;html=1;exitX=0.5;exitY=1;exitDx=0;exitDy=0;entryX=0.5;entryY=0;entryDx=0;entryDy=0;" edge="1" parent="1" source="hWe4oTkrxi1AVkJzb1ZG-5" target="hWe4oTkrxi1AVkJzb1ZG-6">
          <mxGeometry relative="1" as="geometry" />
        </mxCell>
        <mxCell id="hWe4oTkrxi1AVkJzb1ZG-5" value=":data:news" style="rounded=1;whiteSpace=wrap;html=1;" vertex="1" parent="1">
          <mxGeometry x="360" y="240" width="120" height="60" as="geometry" />
        </mxCell>
        <mxCell id="hWe4oTkrxi1AVkJzb1ZG-6" value=":domain:news" style="rounded=1;whiteSpace=wrap;html=1;" vertex="1" parent="1">
          <mxGeometry x="360" y="360" width="120" height="60" as="geometry" />
        </mxCell>
      </root>
    </mxGraphModel>
  </diagram>
</mxfile>
